<svg xmlns="http://www.w3.org/2000/svg" xmlns:xlink="http://www.w3.org/1999/xlink" width="242.306" height="189.185" viewBox="0 0 242.306 189.185">
  <defs>
    <linearGradient id="linear-gradient" x1="0.5" y1="1" x2="0.5" gradientUnits="objectBoundingBox">
      <stop offset="0" stop-color="gray" stop-opacity="0.251"/>
      <stop offset="0.54" stop-color="gray" stop-opacity="0.122"/>
      <stop offset="1" stop-color="gray" stop-opacity="0.102"/>
    </linearGradient>
    <linearGradient id="linear-gradient-2" y2="0" xlink:href="#linear-gradient"/>
  </defs>
  <g id="undraw_time_management_30iu" transform="translate(-0.007 -0.005)">
    <path id="Path_197" data-name="Path 197" d="M106.659,82.806a8.041,8.041,0,0,0-4.076,2.976c-.921,1.56-.811,3.5-.639,5.3,1.494,15.658,5.431,32.31-1.367,46.494-3.3,6.881-8.819,12.4-13.208,18.644s-7.7,14.051-5.666,21.4c2.489,8.983,11.778,13.963,18.039,20.876,4.1,4.52,6.972,10.012,10.8,14.766s9.064,8.944,15.168,9.223c8.779.4,15.923-7.177,24.53-8.934,8.819-1.8,17.7,2.778,24.849,8.255s13.654,12.113,21.985,15.533c9.2,3.78,19.572,3.2,29.258,5.472,8.819,2.07,16.937,6.472,25.692,8.819s19.016,2.2,25.8-3.79c8.841-7.839,8.145-21.8,13.791-32.171,5.245-9.634,15.511-15.386,22.421-23.9,12.434-15.33,12.028-38.76,1.47-55.432s-29.682-26.767-49.237-29.4c-8.819-1.183-17.9-1.021-26.377-3.714-22.693-7.2-36.2-33.006-59.367-38.376-14.727-3.407-29.05,2.494-41.594,9.757C128.037,80.918,117.991,78.105,106.659,82.806Z" transform="translate(-81.08 -63.86)" fill="#f69e46" opacity="0.23"/>
    <path id="Path_198" data-name="Path 198" d="M178.383,347.69s-8.361,7.89-17.334,8.125a17.414,17.414,0,0,0-10.379,3.692,29.286,29.286,0,0,0-3.88,3.692" transform="translate(-130.688 -278.159)" fill="none" stroke="#535461" stroke-miterlimit="10" stroke-width="2"/>
    <path id="Path_199" data-name="Path 199" d="M119.115,410.748c1.205-.612,5.806-.206,5.806-.206s-2.386,3.956-3.591,4.568a2.45,2.45,0,1,1-2.2-4.363Z" transform="translate(-108.672 -325.515)" fill="#46f687"/>
    <path id="Path_200" data-name="Path 200" d="M135.459,383.226c1.345.142,4.985,2.984,4.985,2.984s-4.164,2.023-5.5,1.884a2.45,2.45,0,0,1,.512-4.867Z" transform="translate(-120.173 -304.987)" fill="#46f687"/>
    <path id="Path_201" data-name="Path 201" d="M178.6,358.962c1.088.8,2.8,5.093,2.8,5.093s-4.608-.35-5.7-1.149a2.45,2.45,0,0,1,2.9-3.944Z" transform="translate(-151.832 -286.359)" fill="#46f687"/>
    <path id="Path_202" data-name="Path 202" d="M218.451,349.835c1.208.605,3.618,4.547,3.618,4.547s-4.6.434-5.808-.171a2.45,2.45,0,1,1,2.19-4.375Z" transform="translate(-182.032 -279.537)" fill="#46f687"/>
    <path id="Path_203" data-name="Path 203" d="M159.4,395.879c.4-1.291-.774-5.759-.774-5.759s-3.5,3.018-3.9,4.309a2.45,2.45,0,1,0,4.674,1.45Z" transform="translate(-136.569 -310.195)" fill="#46f687"/>
    <path id="Path_204" data-name="Path 204" d="M205.1,385.782c0-1.352-2.462-5.262-2.462-5.262s-2.435,3.919-2.432,5.276a2.45,2.45,0,1,0,4.9-.015Z" transform="translate(-171.022 -302.947)" fill="#46f687"/>
    <path id="Path_205" data-name="Path 205" d="M248.351,367.372c.225-1.333-1.538-5.6-1.538-5.6s-3.064,3.459-3.287,4.791a2.45,2.45,0,0,0,4.826.813Z" transform="translate(-203.714 -288.79)" fill="#6c63ff"/>
    <path id="Path_206" data-name="Path 206" d="M244.651,184.425s-10.07-5.531-13.064-14a17.414,17.414,0,0,0-6.7-8.743,29.293,29.293,0,0,0-4.713-2.548" transform="translate(-186.093 -135.789)" fill="none" stroke="#535461" stroke-miterlimit="10" stroke-width="2"/>
    <path id="Path_207" data-name="Path 207" d="M199.732,135.408c.953.958,1.979,5.463,1.979,5.463s-4.5-1.053-5.45-2.014a2.45,2.45,0,0,1,3.471-3.449Z" transform="translate(-167.565 -117.395)" fill="#46f687"/>
    <path id="Path_208" data-name="Path 208" d="M230.626,141.072c.279,1.323-1.306,5.661-1.306,5.661s-3.2-3.329-3.481-4.654a2.45,2.45,0,1,1,4.789-1.009Z" transform="translate(-190.314 -120.602)" fill="#46f687"/>
    <path id="Path_209" data-name="Path 209" d="M267.306,175.058c-.426,1.281-3.985,4.228-3.985,4.228s-1.083-4.49-.656-5.774a2.452,2.452,0,1,1,4.654,1.546Z" transform="translate(-218.102 -145.38)" fill="#46f687"/>
    <path id="Path_210" data-name="Path 210" d="M288.039,210.5c-.2,1.335-3.214,4.84-3.214,4.84S283,211.1,283.2,209.761a2.45,2.45,0,1,1,4.838.735Z" transform="translate(-233.672 -172.357)" fill="#46f687"/>
    <path id="Path_211" data-name="Path 211" d="M218.522,170.984c1.352-.015,5.242-2.508,5.242-2.508s-3.946-2.4-5.3-2.386a2.45,2.45,0,0,0,.056,4.9Z" transform="translate(-182.978 -141.044)" fill="#46f687"/>
    <path id="Path_212" data-name="Path 212" d="M241.16,211.581c1.284-.419,4.25-3.961,4.25-3.961s-4.485-1.11-5.769-.691a2.45,2.45,0,1,0,1.519,4.654Z" transform="translate(-199.453 -171.808)" fill="#46f687"/>
    <path id="Path_213" data-name="Path 213" d="M272.162,246.906c1.337-.2,4.86-3.185,4.86-3.185s-4.233-1.852-5.568-1.656a2.45,2.45,0,1,0,.71,4.843Z" transform="translate(-223.154 -198.397)" fill="#46f687"/>
    <circle id="Ellipse_98" data-name="Ellipse 98" cx="88.676" cy="88.676" r="88.676" transform="translate(39.185 5.493)" fill="url(#linear-gradient)"/>
    <path id="Path_240" data-name="Path 240" d="M87.206,0A87.206,87.206,0,1,1,0,87.206,87.206,87.206,0,0,1,87.206,0Z" transform="translate(40.654 6.963)" fill="#400eb8"/>
    <circle id="Ellipse_100" data-name="Ellipse 100" cx="69.324" cy="69.324" r="69.324" transform="translate(58.537 24.845)" fill="#dde1ec"/>
    <rect id="Rectangle_159" data-name="Rectangle 159" width="3.919" height="61.24" transform="translate(125.901 37.093)" fill="#535461" opacity="0.3"/>
    <g id="Group_13" data-name="Group 13" transform="translate(90.666 74.37)" opacity="0.1">
      <rect id="Rectangle_160" data-name="Rectangle 160" width="55.361" height="4.899" transform="translate(41.359 18.33)"/>
      <rect id="Rectangle_161" data-name="Rectangle 161" width="4.899" height="39.321" transform="translate(0 4.34) rotate(-62.36)"/>
      <circle id="Ellipse_101" data-name="Ellipse 101" cx="7.349" cy="7.349" r="7.349" transform="translate(29.846 13.431)"/>
    </g>
    <rect id="Rectangle_162" data-name="Rectangle 162" width="55.361" height="4.899" transform="translate(132.025 91.72)" fill="#535461"/>
    <rect id="Rectangle_163" data-name="Rectangle 163" width="39.321" height="4.899" transform="translate(92.956 73.395) rotate(27.64)" fill="#535461"/>
    <circle id="Ellipse_102" data-name="Ellipse 102" cx="7.349" cy="7.349" r="7.349" transform="translate(120.512 86.82)" fill="#535461"/>
    <g id="Group_14" data-name="Group 14" transform="translate(58.532 24.845)" opacity="0.1">
      <path id="Path_214" data-name="Path 214" d="M325.389,242.923A69.329,69.329,0,0,1,450.114,201.24a69.331,69.331,0,1,0-116.183,75.037,69.008,69.008,0,0,1-8.542-33.354Z" transform="translate(-320 -165.27)"/>
    </g>
    <path id="Path_215" data-name="Path 215" d="M688.9,194.161c-.823-.791-7.751,4.409-7.751,4.409s-2.467.451-1.879,2.143-2.584,11.173-2.584,11.173l-1.291-1.805a7.75,7.75,0,0,0-1.026-4.556c-.047-.076-.093-.149-.14-.218l.225-.078c-.086-1.156-1.935-2.918-2.917-3.78v-.372c.061-1.382.615-2.839,0-4.091-.7-1.428-2.731-2.146-2.9-3.714-.1-.936.529-1.781.808-2.682.666-2.156-.718-4.355-2.04-6.212a8.692,8.692,0,0,0-1.619-1.867,7.857,7.857,0,0,0-1.945-1.039,49.739,49.739,0,0,0-5.918-1.715,9.427,9.427,0,0,0-5.634-.113,2.77,2.77,0,0,0-1.225.7,7.577,7.577,0,0,0-.828,1.879,6.7,6.7,0,0,1-2.479,2.232,3.561,3.561,0,0,0-1.874,2.619c0,1.565,1.788,2.55,2.386,4.008.558,1.357,0,2.868-.311,4.3a2.888,2.888,0,0,0-.037,1.418,3.048,3.048,0,0,0,.549.955c.37.49.767.946,1.161,1.411l-.181.071c-3.287-.338-5.4,3.836-5.4,3.836.152.032.3.069.439.11l-.14.181a17.817,17.817,0,0,0-2.413,4.221l-2.695,3.611s-.588-9.029.823-11.06-1.291-3.273-1.291-3.273-5.879-6.545-6.695-5.982,2,7.675,4.463,8.8a10.843,10.843,0,0,1-.245,3.723c-.3.928-1.879,10.722-1.879,10.722s-1.408,8.238,5.051,4.164c4.2-2.641,6.908-7.187,8.289-10.043q.145-.3.272-.576a6.883,6.883,0,0,1,.13.919l.245,9.438a14.325,14.325,0,0,1-1.484,6.741l-2.878,5.837.321.1-.194.279c-1.9,2.79-5.12,9.064,1.516,12.26l8.818,1.129-.47,2.256s-3.64,6.883-4.7,11.623a34.832,34.832,0,0,1-3.055,8.351l.272.145c-.056.064-.115.13-.171.2a4.256,4.256,0,0,0-1.019,2.136l-1.2,1.7s-.47,7,.47,8.691c.514.926,2.222,1.514,3.674,1.857a2.42,2.42,0,0,0,2.751-3.549l-.015-.025h-.022c-.245-1.139-.994-4.674-.75-6.016.069-.382.132-.762.164-1.149a4.063,4.063,0,0,1,.456-1.453c.039-.076.081-.149.122-.223l.128.054c.394.169.784.328,1.154.468-.573.522-.98,1.6-.49,3.824,0,0,.046,5.558.47,6.433s5.166,2.031,5.989,1.129-.529-4.008-.529-4.008l-.042.029c-.272-1.8-.608-5.024.218-6.293.333-.512.657-1.041.945-1.536l.179-.306h0c1.534.764,3.155,1.34,4.042.941,0,0,3.875-9.029,3.64-10.156s5.989-13.882,5.989-13.882,5.284-5.879-1.173-9.931c-2.05-1.291-3.545-2.158-4.63-2.744L666,228.189a17.373,17.373,0,0,1,.245-7.51l.98-3.738h0l.081-.318s2.467-5.078,2.349-7.449a1.716,1.716,0,0,1,.061-.546q.04.169.088.353a45.532,45.532,0,0,0,2.552,7.192c1.874,4.228,4.654,3.892,6.178,3.292a2.109,2.109,0,0,0,1.3-1.524c.549-2.631,2.055-10,2.151-12.037a34.226,34.226,0,0,1,.588-4.74C686.439,198.9,689.726,194.952,688.9,194.161Z" transform="translate(-496.99 -150.988)" fill="url(#linear-gradient-2)"/>
    <path id="Path_216" data-name="Path 216" d="M724.074,531.512s-.517,1.036-1.225,2.281c-.277.49-.586,1.017-.9,1.524-1.12,1.791,0,7.5,0,7.5l-2.45.336-2.45-1.225-.448-4.14v-3.028l2.792-3.123,1.225-1.352Z" transform="translate(-560.916 -416.022)" fill="#f8bdc5"/>
    <g id="Group_15" data-name="Group 15" transform="translate(158.471 114.258)" opacity="0.1">
      <path id="Path_217" data-name="Path 217" d="M732.666,531.512s-.517,1.036-1.225,2.281a30.345,30.345,0,0,1-3.131-1.925l-.216-.152-.115-.083,1.225-1.352Z" transform="translate(-727.98 -530.28)"/>
    </g>
    <path id="Path_218" data-name="Path 218" d="M734.6,400.9s-5.93,12.642-5.705,13.762-3.469,10.07-3.469,10.07c-.843.4-2.391-.174-3.851-.931a30.175,30.175,0,0,1-3.185-1.96l-.216-.152-.13-.093,9.735-26.965-8.613-6.318-.637-.468L714.68,385l11.758,2.126s.409-.051,2.572,1.159c1.039.581,2.482,1.45,4.476,2.758C739.632,395.078,734.6,400.9,734.6,400.9Z" transform="translate(-559.467 -306.33)" fill="#5e52ad"/>
    <g id="Group_16" data-name="Group 16" transform="translate(155.213 78.67)" opacity="0.03">
      <path id="Path_219" data-name="Path 219" d="M734.6,400.9s-5.93,12.642-5.705,13.762-3.469,10.07-3.469,10.07c-.843.4-2.391-.174-3.851-.931a30.175,30.175,0,0,1-3.185-1.96l-.216-.152-.13-.093,9.735-26.965-8.613-6.318-.637-.468L714.68,385l11.758,2.126s.409-.051,2.572,1.159c1.039.581,2.482,1.45,4.476,2.758C739.632,395.078,734.6,400.9,734.6,400.9Z" transform="translate(-714.68 -385)"/>
    </g>
    <path id="Path_220" data-name="Path 220" d="M715.935,544.4s-2.91-.448-1.9,4.252c0,0,.044,5.512.448,6.369s4.924,2.014,5.705,1.119-.5-3.971-.5-3.971-3.3,2.406-4.2-.169S715.935,544.4,715.935,544.4Z" transform="translate(-558.819 -426.677)" fill="#5d3e53"/>
    <path id="Path_221" data-name="Path 221" d="M693.532,533.9a3.527,3.527,0,0,0-.762,1.058,4.144,4.144,0,0,0-.434,1.44c-.029.382-.091.762-.154,1.139-.279,1.595.791,6.32.791,6.32l-4.253.671-1.565-1.678-.336-3.692a13.38,13.38,0,0,0,.671-3.919,4.107,4.107,0,0,1,.98-2.45,6.733,6.733,0,0,1,1.134-1.124S694.429,533.12,693.532,533.9Z" transform="translate(-538.431 -417.071)" fill="#f8bdc5"/>
    <g id="Group_17" data-name="Group 17" transform="translate(150.049 114.594)" opacity="0.1">
      <path id="Path_222" data-name="Path 222" d="M698.651,533.889a3.529,3.529,0,0,0-.762,1.058c-1.742-.786-3.572-1.778-4.238-2.146l-.051-.027a6.736,6.736,0,0,1,1.134-1.124S699.548,533.1,698.651,533.889Z" transform="translate(-693.6 -531.65)"/>
    </g>
    <path id="Path_223" data-name="Path 223" d="M698.687,397.54s-2.8,5.259-4.588,9.622c-1.176,2.866-3.606,9.691-5.144,14.036l-.225.642c-.676,1.923-1.127,3.224-1.127,3.224a2.914,2.914,0,0,1-.879-.13c-.265-.071-.561-.167-.877-.284l-.355-.135c-.353-.137-.735-.3-1.1-.463-1.779-.794-3.675-1.827-4.363-2.2l-.26-.144a35.4,35.4,0,0,0,2.918-8.287c1.007-4.7,4.475-11.513,4.475-11.513l.448-2.239-8.392-1.12c-6.322-3.16-3.251-9.389-1.445-12.155a16.345,16.345,0,0,1,1-1.389l6.714,1.47s1.058.338,3.41,1.379l1.08.49c1.318.605,2.939,1.384,4.9,2.383C701.482,394.064,698.687,397.54,698.687,397.54Z" transform="translate(-529.823 -306.33)" fill="#5e52ad"/>
    <path id="Path_224" data-name="Path 224" d="M691.2,553.334a2.376,2.376,0,0,1-2.621,3.518c-1.374-.341-3-.924-3.493-1.842-.894-1.678-.448-8.615-.448-8.615l1.176-1.734s-.615,7.665.84,8.329,4.532.311,4.532.311Z" transform="translate(-536.699 -426.879)" fill="#5d3e53"/>
    <path id="Path_225" data-name="Path 225" d="M697.792,181.684a2.616,2.616,0,0,0-1.176.7,8.059,8.059,0,0,0-.789,1.864,6.421,6.421,0,0,1-2.361,2.2,3.509,3.509,0,0,0-1.786,2.6c0,1.553,1.715,2.528,2.273,3.971.532,1.347,0,2.844-.3,4.262a2.975,2.975,0,0,0-.034,1.406,3.053,3.053,0,0,0,.524.948c1.08,1.47,2.423,2.773,3.145,4.446a13.769,13.769,0,0,1,.845,4.054,20.372,20.372,0,0,1,.039,5.965.6.6,0,0,0,0,.36.559.559,0,0,0,.287.245,5.879,5.879,0,0,0,7.959-2.94c.49-1.11.678-2.45,1.648-3.17a.826.826,0,0,1,.394-.179,1.154,1.154,0,0,1,.637.213,6.273,6.273,0,0,0,4.189.421,3.894,3.894,0,0,0,2.276-1.132c1.1-1.313.49-3.275.563-4.987.059-1.369.586-2.815,0-4.054-.661-1.416-2.6-2.126-2.766-3.674-.1-.926.5-1.766.772-2.658.634-2.139-.683-4.319-1.943-6.158a8.527,8.527,0,0,0-1.541-1.849,7.4,7.4,0,0,0-1.852-1.029,45.268,45.268,0,0,0-5.634-1.7A8.528,8.528,0,0,0,697.792,181.684Z" transform="translate(-542.101 -152.53)" fill="#85555c"/>
    <path id="Path_226" data-name="Path 226" d="M731.984,252.9h-6.492V242.379a19.589,19.589,0,0,0,.338-3.062v-1.053a5.416,5.416,0,0,0-1-3.27c-1.791-2.014,5.818-1.678,5.818-1.678a18.935,18.935,0,0,0,.906,2.709,16.476,16.476,0,0,0,2.18,3.839,8.883,8.883,0,0,0,2.957,2.516C741.158,244.618,731.984,252.9,731.984,252.9Z" transform="translate(-566.924 -191.786)" fill="#f8bdc5"/>
    <g id="Group_18" data-name="Group 18" transform="translate(157.625 41.508)" opacity="0.1">
      <path id="Path_227" data-name="Path 227" d="M731.523,236.025a5.94,5.94,0,0,1-5.722,2.239,5.415,5.415,0,0,0-1-3.27c-1.791-2.014,5.818-1.678,5.818-1.678A18.935,18.935,0,0,0,731.523,236.025Z" transform="translate(-724.526 -233.294)"/>
    </g>
    <circle id="Ellipse_103" data-name="Ellipse 103" cx="5.931" cy="5.931" r="5.931" transform="translate(153.981 34.372)" fill="#f8bdc5"/>
    <path id="Path_228" data-name="Path 228" d="M795.36,248.3a35.25,35.25,0,0,0-.559,4.7c-.091,2.016-1.526,9.326-2.05,11.935a2.07,2.07,0,0,1-1.24,1.511c-1.455.6-4.1.928-5.879-3.263a46.4,46.4,0,0,1-2.432-7.128,19.271,19.271,0,0,1-.49-2.494l3.919-2.126a4.824,4.824,0,0,1,.926,1.188,7.946,7.946,0,0,1,.98,4.517l1.225,1.791s3.02-9.4,2.45-11.077S794,245.724,794,245.724s6.6-5.144,7.386-4.363S799.051,246.059,795.36,248.3Z" transform="translate(-610.832 -197.816)" fill="#f8bdc5"/>
    <path id="Path_229" data-name="Path 229" d="M653.515,242.92a26.421,26.421,0,0,1-1.053,2.572c-1.318,2.834-3.9,7.349-7.9,9.96-6.154,4.027-4.811-4.14-4.811-4.14s1.506-9.71,1.791-10.629a11.613,11.613,0,0,0,.223-3.692c-2.349-1.119-5.034-8.167-4.253-8.728s6.369,5.931,6.369,5.931,2.574,1.225,1.225,3.246-.784,10.965-.784,10.965l2.589-3.574a17.863,17.863,0,0,1,2.3-4.184c.49-.669.833-1.073.833-1.073Z" transform="translate(-501.099 -187.962)" fill="#f8bdc5"/>
    <g id="Group_19" data-name="Group 19" transform="translate(171.873 53.613)" opacity="0.1">
      <path id="Path_230" data-name="Path 230" d="M787.543,283.9c-.823.3-4.01,1.59-4.363,3.429a19.25,19.25,0,0,1-.49-2.494l3.919-2.126a4.827,4.827,0,0,1,.933,1.191Z" transform="translate(-782.69 -282.71)"/>
    </g>
    <g id="Group_20" data-name="Group 20" transform="translate(148.114 51.605)" opacity="0.1">
      <path id="Path_231" data-name="Path 231" d="M690,277.864a26.435,26.435,0,0,1-1.053,2.572c-.152-1.107-.776-3.939-3.248-4.853.49-.669.833-1.073.833-1.073Z" transform="translate(-685.7 -274.51)"/>
    </g>
    <g id="Group_21" data-name="Group 21" transform="translate(158.569 47.531)" opacity="0.1">
      <path id="Path_232" data-name="Path 232" d="M734.871,271.461H728.38V260.942a19.589,19.589,0,0,0,.338-3.062,4.036,4.036,0,0,1,1,3.285L733.191,269l1.68-6.93-.558-.894,2.3-2.739a8.881,8.881,0,0,0,2.957,2.516C744.045,263.181,734.871,271.461,734.871,271.461Z" transform="translate(-728.38 -257.88)"/>
    </g>
    <g id="Group_22" data-name="Group 22" transform="translate(147.948 78.67)" opacity="0.1">
      <path id="Path_233" data-name="Path 233" d="M706.719,388.919s-5.085-.4-9.5-.6l-.443-.02c-.627-.024-1.225-.044-1.81-.059a40.55,40.55,0,0,1-9.948-1.862,16.367,16.367,0,0,1,1-1.384l6.715,1.47s1.058.338,3.41,1.379L692.285,385l11.758,2.126s.409-.051,2.572,1.159Z" transform="translate(-685.02 -385)"/>
    </g>
    <path id="Path_234" data-name="Path 234" d="M701.763,262.479l-.558-.894,2.484-2.971s5.122,2.511,6.465,1.96c0,0,3.246,2.695,3.356,4.252,0,0-4.7,1.565-4.588,3.919s-2.229,7.383-2.229,7.383l-.98,4.022a17.9,17.9,0,0,0-.245,7.447l.894,4.98s-7.05-.559-11.758-.671a40.777,40.777,0,0,1-10.07-1.9l2.746-5.779a14.7,14.7,0,0,0,1.416-6.682l-.245-9.355s-.223-4.7-3.919-5.482c0,0,2.014-4.14,5.144-3.8,0,0,4.561-1.9,5.916-.617a4.03,4.03,0,0,1,1.021,3.3l3.469,7.839Z" transform="translate(-536.702 -210.318)" fill="#f69e46"/>
    <g id="Group_23" data-name="Group 23" transform="translate(153.972 31.76)" opacity="0.1">
      <path id="Path_235" data-name="Path 235" d="M711.273,200.82c.9,0,1.6-.953,2.5-.9a2.55,2.55,0,0,1,1.249.588,15.249,15.249,0,0,0,4.779,2.2,4.169,4.169,0,0,0,2.033.147,1.734,1.734,0,0,0,1.367-1.369,2.334,2.334,0,0,0-.117-.889,10.992,10.992,0,0,0-4.787-6.318,3.768,3.768,0,0,0-3.1-.649,6.144,6.144,0,0,0-2.2,1.911,8.377,8.377,0,0,1-1.715,1.391c-.49.3-1.225.49-1.507,1.034C709.245,198.98,710.08,200.81,711.273,200.82Z" transform="translate(-709.613 -193.5)"/>
    </g>
    <path id="Path_236" data-name="Path 236" d="M711.273,199.91c.9,0,1.6-.953,2.5-.9a2.55,2.55,0,0,1,1.249.588,15.249,15.249,0,0,0,4.779,2.2,4.169,4.169,0,0,0,2.033.147,1.734,1.734,0,0,0,1.367-1.369,2.334,2.334,0,0,0-.117-.889,10.992,10.992,0,0,0-4.787-6.318,3.768,3.768,0,0,0-3.1-.649,6.145,6.145,0,0,0-2.2,1.911,8.376,8.376,0,0,1-1.715,1.391c-.49.3-1.225.49-1.507,1.034C709.245,198.08,710.08,199.9,711.273,199.91Z" transform="translate(-555.641 -161.053)" fill="#85555c"/>
    <path id="Path_237" data-name="Path 237" d="M705.32,326.79s5.482,2.014,9.064.448l1.791.113s2.976,2.087,6.124,1.154" transform="translate(-552.4 -262.379)" opacity="0.05"/>
    <path id="Path_238" data-name="Path 238" d="M809.524,313.09s-.894,2.126-.448,2.8" transform="translate(-630.645 -252.035)" opacity="0.05"/>
    <path id="Path_239" data-name="Path 239" d="M665.58,310.35s.448,2.126,0,2.8" transform="translate(-522.394 -249.966)" opacity="0.05"/>
  </g>
</svg>
