<svg xmlns="http://www.w3.org/2000/svg" xmlns:xlink="http://www.w3.org/1999/xlink" width="327.735" height="240.435" viewBox="0 0 327.735 240.435">
  <defs>
    <linearGradient id="linear-gradient" x1="0.5" y1="1" x2="0.5" gradientUnits="objectBoundingBox">
      <stop offset="0" stop-color="gray" stop-opacity="0.251"/>
      <stop offset="0.54" stop-color="gray" stop-opacity="0.122"/>
      <stop offset="1" stop-color="gray" stop-opacity="0.102"/>
    </linearGradient>
    <linearGradient id="linear-gradient-2" x1="9.926" x2="9.926" y2="0" xlink:href="#linear-gradient"/>
  </defs>
  <g id="undraw_make_it_rain_iwk4" transform="translate(0 0.001)">
    <path id="Path_79" data-name="Path 79" d="M188.582,280.244c-4.31,1.3-8.345,4.455-9.422,8.829-1.232,5.027,1.608,10.095,2.019,15.256,1.326,16.912-22.733,28.843-19.3,45.456,1.363,6.605,6.871,11.464,12.3,15.478,8.695,6.41,18.342,12.073,29.025,13.671,16.215,2.429,33.157-4.711,48.918-.2,12.712,3.641,22.44,14.311,35.065,18.248,9.61,3,19.964,1.817,29.947.6,5.384-.653,11.023-1.407,15.367-4.637,8.076-6.013,8.584-17.887,13.991-26.4,8.351-13.123,26.663-15.7,42.017-13.15s30.263,8.829,45.819,8.318a20.913,20.913,0,0,0,9.63-2.194c3.526-1.982,5.909-5.475,8.015-8.93a144.5,144.5,0,0,0,20.953-71.8c.091-4.357-.064-8.9-2.113-12.749-2.591-4.866-7.769-7.776-12.924-9.734-12.379-4.711-26.054-5.481-38.184-10.794C408,240.391,398.528,231.4,388.339,223.7a167.061,167.061,0,0,0-68.808-30.644c-5.851-1.131-11.925-1.938-17.739-.633-6.7,1.5-12.473,5.68-17.665,10.175-13.813,11.959-24.883,26.714-37.612,39.82A214.143,214.143,0,0,1,217.94,267.06c-4.711,3.4-9.718,7.426-14.967,9.936C198.168,279.292,193.663,278.713,188.582,280.244Z" transform="translate(-145.209 -158.437)" fill="#f69e46" opacity="0.2"/>
    <path id="Path_80" data-name="Path 80" d="M385.607,138.88s-13.005,17.272-3.7,37.4-16.215,52.478-16.215,52.478" transform="translate(-280.664 -123.355)" fill="none" stroke="#535461" stroke-miterlimit="10" stroke-width="2"/>
    <path id="Path_81" data-name="Path 81" d="M425.628,101.8c-1.033,4.445-5.976,7.093-5.976,7.093s-3.264-4.559-2.231-9,3.7-7.621,5.976-7.093S426.661,97.356,425.628,101.8Z" transform="translate(-314.854 -92.74)" fill="#8ed16f"/>
    <ellipse id="Ellipse_15" data-name="Ellipse 15" cx="2.594" cy="0.972" rx="2.594" ry="0.972" transform="translate(104.972 10.372) rotate(-76.9)" fill="#8ed16f"/>
    <ellipse id="Ellipse_16" data-name="Ellipse 16" cx="2.594" cy="0.972" rx="2.594" ry="0.972" transform="translate(104.972 10.372) rotate(-76.9)" opacity="0.3"/>
    <path id="Path_82" data-name="Path 82" d="M417.383,160.984c-4.294,1.548-9.2-1.164-9.2-1.164s2.053-5.219,6.349-6.763,8.412-1.009,9.2,1.164S421.676,159.436,417.383,160.984Z" transform="translate(-308.857 -132.174)" fill="#8ed16f"/>
    <ellipse id="Ellipse_17" data-name="Ellipse 17" cx="2.594" cy="0.972" rx="2.594" ry="0.972" transform="matrix(0.94, -0.34, 0.34, 0.94, 104.22, 24.436)" fill="#8ed16f"/>
    <ellipse id="Ellipse_18" data-name="Ellipse 18" cx="2.594" cy="0.972" rx="2.594" ry="0.972" transform="matrix(0.94, -0.34, 0.34, 0.94, 104.22, 24.436)" opacity="0.3"/>
    <path id="Path_83" data-name="Path 83" d="M414.413,207.754c-4.294,1.548-9.2-1.164-9.2-1.164s2.053-5.219,6.349-6.763,8.412-1.009,9.2,1.164S418.706,206.209,414.413,207.754Z" transform="translate(-306.886 -163.207)" fill="#8ed16f"/>
    <ellipse id="Ellipse_19" data-name="Ellipse 19" cx="2.594" cy="0.972" rx="2.594" ry="0.972" transform="translate(103.271 40.406) rotate(-19.8)" fill="#8ed16f"/>
    <ellipse id="Ellipse_20" data-name="Ellipse 20" cx="2.594" cy="0.972" rx="2.594" ry="0.972" transform="translate(103.271 40.406) rotate(-19.8)" opacity="0.3"/>
    <path id="Path_84" data-name="Path 84" d="M429.323,262.624c-4.294,1.548-9.2-1.164-9.2-1.164s2.053-5.219,6.349-6.763,8.412-1.009,9.2,1.164S433.616,261.086,429.323,262.624Z" transform="translate(-316.779 -199.614)" fill="#8ed16f"/>
    <ellipse id="Ellipse_21" data-name="Ellipse 21" cx="2.594" cy="0.972" rx="2.594" ry="0.972" transform="translate(108.289 58.877) rotate(-19.8)" fill="#8ed16f"/>
    <ellipse id="Ellipse_22" data-name="Ellipse 22" cx="2.594" cy="0.972" rx="2.594" ry="0.972" transform="translate(108.289 58.877) rotate(-19.8)" opacity="0.3"/>
    <path id="Path_85" data-name="Path 85" d="M419.623,312.8c-4.294,1.548-9.2-1.164-9.2-1.164s2.053-5.219,6.349-6.763,8.412-1.009,9.2,1.164S423.92,311.259,419.623,312.8Z" transform="translate(-310.343 -232.909)" fill="#8ed16f"/>
    <ellipse id="Ellipse_23" data-name="Ellipse 23" cx="2.594" cy="0.972" rx="2.594" ry="0.972" transform="matrix(0.94, -0.34, 0.34, 0.94, 105.034, 75.48)" fill="#8ed16f"/>
    <ellipse id="Ellipse_24" data-name="Ellipse 24" cx="2.594" cy="0.972" rx="2.594" ry="0.972" transform="matrix(0.94, -0.34, 0.34, 0.94, 105.034, 75.48)" opacity="0.3"/>
    <path id="Path_86" data-name="Path 86" d="M371.094,172.817c3.17,3.284,8.772,3.028,8.772,3.028s.461-5.589-2.709-8.873-7.1-4.637-8.772-3.028S367.924,169.533,371.094,172.817Z" transform="translate(-281.952 -139.536)" fill="#8ed16f"/>
    <ellipse id="Ellipse_25" data-name="Ellipse 25" cx="0.972" cy="2.594" rx="0.972" ry="2.594" transform="matrix(0.719, -0.695, 0.695, 0.719, 89.792, 29.058)" fill="#8ed16f"/>
    <ellipse id="Ellipse_26" data-name="Ellipse 26" cx="0.972" cy="2.594" rx="0.972" ry="2.594" transform="matrix(0.719, -0.695, 0.695, 0.719, 89.792, 29.058)" opacity="0.3"/>
    <path id="Path_87" data-name="Path 87" d="M365.684,327.807c3.17,3.284,8.772,3.028,8.772,3.028s.461-5.589-2.709-8.873-7.1-4.637-8.772-3.028S362.514,324.523,365.684,327.807Z" transform="translate(-278.363 -242.374)" fill="#8ed16f"/>
    <ellipse id="Ellipse_27" data-name="Ellipse 27" cx="0.972" cy="2.594" rx="0.972" ry="2.594" transform="matrix(0.719, -0.695, 0.695, 0.719, 87.967, 81.215)" fill="#8ed16f"/>
    <ellipse id="Ellipse_28" data-name="Ellipse 28" cx="0.972" cy="2.594" rx="0.972" ry="2.594" transform="matrix(0.719, -0.695, 0.695, 0.719, 87.967, 81.215)" opacity="0.3"/>
    <path id="Path_88" data-name="Path 88" d="M373.663,228.579c4.085,2.039,9.277-.081,9.277-.081s-1.43-5.421-5.512-7.46-8.237-2.019-9.277.081S369.578,226.54,373.663,228.579Z" transform="translate(-282.139 -176.865)" fill="#8ed16f"/>
    <ellipse id="Ellipse_29" data-name="Ellipse 29" cx="0.972" cy="2.594" rx="0.972" ry="2.594" transform="translate(90.717 47.506) rotate(-63.48)" fill="#8ed16f"/>
    <ellipse id="Ellipse_30" data-name="Ellipse 30" cx="0.972" cy="2.594" rx="0.972" ry="2.594" transform="translate(90.717 47.506) rotate(-63.48)" opacity="0.3"/>
    <path id="Path_89" data-name="Path 89" d="M378.755,283.149c4.085,2.039,9.277-.081,9.277-.081s-1.43-5.421-5.512-7.46-8.237-2.019-9.277.081S374.687,281.13,378.755,283.149Z" transform="translate(-285.518 -213.074)" fill="#8ed16f"/>
    <ellipse id="Ellipse_31" data-name="Ellipse 31" cx="0.972" cy="2.594" rx="0.972" ry="2.594" transform="translate(92.431 65.87) rotate(-63.48)" fill="#8ed16f"/>
    <ellipse id="Ellipse_32" data-name="Ellipse 32" cx="0.972" cy="2.594" rx="0.972" ry="2.594" transform="translate(92.431 65.87) rotate(-63.48)" opacity="0.3"/>
    <path id="Path_90" data-name="Path 90" d="M189.477,249.21s23.752,23.752,10.344,59,22.985,93.859,22.985,93.859-.39-.057-1.114-.185c-48.79-8.611-73.017-64.407-45.9-105.855C185.866,280.617,194.161,262.542,189.477,249.21Z" transform="translate(-147.171 -196.561)" fill="#8ed16f"/>
    <path id="Path_91" data-name="Path 91" d="M113,534.135s27.1-4.317,29.574,19.974,52.118,27.659,52.118,27.659-.336.222-.932.619c-40.994,26.919-80.181,17.141-74.276-18.591C121.685,550.508,121.5,537.166,113,534.135Z" transform="translate(-113 -385.416)" fill="#8ed16f"/>
    <g id="Group_4" data-name="Group 4" transform="translate(0 148.422)" opacity="0.3">
      <path id="Path_92" data-name="Path 92" d="M113,534.135s27.1-4.317,29.574,19.974,52.118,27.659,52.118,27.659-.336.222-.932.619c-40.994,26.919-80.181,17.141-74.276-18.591C121.685,550.508,121.5,537.166,113,534.135Z" transform="translate(-113 -533.838)" fill="#fff"/>
    </g>
    <ellipse id="Ellipse_33" data-name="Ellipse 33" cx="7.453" cy="19.445" rx="7.453" ry="19.445" transform="translate(27.992 109.529)" fill="#8ed16f"/>
    <ellipse id="Ellipse_34" data-name="Ellipse 34" cx="7.453" cy="19.445" rx="7.453" ry="19.445" transform="translate(27.992 109.529)" opacity="0.3"/>
    <ellipse id="Ellipse_35" data-name="Ellipse 35" cx="5.024" cy="11.181" rx="5.024" ry="11.181" transform="translate(15.4 187.336) rotate(-45)" fill="#8ed16f"/>
    <ellipse id="Ellipse_36" data-name="Ellipse 36" cx="5.024" cy="11.181" rx="5.024" ry="11.181" transform="translate(15.4 187.336) rotate(-45)" opacity="0.3"/>
    <path id="Path_93" data-name="Path 93" d="M473.131,358.2H296.7a8.039,8.039,0,0,0-8.039,8.039V469.65a8.039,8.039,0,0,0,8.039,8.039H473.131a8.039,8.039,0,0,0,8.039-8.039V366.239a8.039,8.039,0,0,0-8.039-8.039Z" transform="translate(-229.553 -268.877)" fill="url(#linear-gradient)"/>
    <rect id="Rectangle_40" data-name="Rectangle 40" width="187.977" height="116.676" rx="24.81" transform="translate(61.371 90.729)" fill="#400eb8"/>
    <rect id="Rectangle_41" data-name="Rectangle 41" width="187.977" height="21.39" transform="translate(61.371 111.147)" fill="#f69e46"/>
    <rect id="Rectangle_43" data-name="Rectangle 43" width="152.326" height="10.37" transform="translate(79.198 148.419)" fill="#d6d6e3"/>
    <circle id="Ellipse_37" data-name="Ellipse 37" cx="14.91" cy="14.91" r="14.91" transform="translate(76.927 169.81)" fill="#3f5cec"/>
    <circle id="Ellipse_38" data-name="Ellipse 38" cx="14.91" cy="14.91" r="14.91" transform="translate(76.927 169.81)" opacity="0.3"/>
    <path id="Path_94" data-name="Path 94" d="M822.172,229.557a3.263,3.263,0,0,0,1.437,1.817c3.093,2.042,9.815,1.608,10.623,1.608.172,0,.4.306.646.821a56.8,56.8,0,0,1,3.153,11.245c.165,1.955,1.982,11.1,4.957,14.513.091.1.182.2.269.293,2.917,2.931,6.339-.293,6.339-.293l.491-1.706c-.138.673-.293,1.457-.448,2.335-.077.441-.155.909-.229,1.39a53.321,53.321,0,0,0-.7,8.2,29.812,29.812,0,0,0,.128,2.988c.027.276.057.549.094.814a28.529,28.529,0,0,1,.222,3.647,99.151,99.151,0,0,1-1.874,16.249l.071-.023c-.044.225-.071.336-.071.336l.108-.034q-.077.5-.148,1.026c-.626,4.543-.986,10.2-1.157,13.459a26.925,26.925,0,0,0,.229,5.155l3.284,23.12v10.767a19.022,19.022,0,0,0,.592,4.839c1.07,4.068.188,18.268-.306,25-.138,1.837-.246,3.123-.276,3.493v.111l.094-.037v.118a1.9,1.9,0,0,1,.438-.128c-1.3,2.019-3.661,5.357-5.475,5.919a5.744,5.744,0,0,0-2.736,1.814l-.047.064-.067.094a2.017,2.017,0,0,0-.394,1.03,1.131,1.131,0,0,1-.061-.2c-.138.75.313,1.437,1.729,1.77a11.651,11.651,0,0,0,2.507.2c4.913,0,13.631-1.511,14.593-3.136v-5.606l.158.05v.05l.6.2,1.652-5.545c1.982-1.467.337-27.723,0-33.756-.3-5.5,3.1-27.37,3.7-31.222l-.081-.1.091-.562a2.39,2.39,0,0,1,.336.3,4.386,4.386,0,0,1,.515.76,10.131,10.131,0,0,1,.73,1.507c3.325,8.291,4.822,32,4.822,34.126v22.3a23.2,23.2,0,0,0,.908,6.5,27.919,27.919,0,0,1,.707,3.385c.071.448.131.892.188,1.316s.115.909.158,1.306a2.7,2.7,0,0,0,.034.3.594.594,0,0,1,0,.138c.091.878.138,1.454.138,1.454a.338.338,0,0,1,.067-.131l.017.212a.454.454,0,0,1,.131-.209,3.18,3.18,0,0,1,.444-.363v2.833l-.081-.06v.488c3.426,2.584,9,3.365,13.281,3.335a16.989,16.989,0,0,0,5.8-.727c1.117-.548.5-1.827-.512-2.806a3.838,3.838,0,0,0-2.463-1.272c-1.083.118-4.788-4.078-6.73-6.376l.219-.1.31-.135V342.656s.5-14.677,1.982-29.193a51.645,51.645,0,0,0-2.541-21.656l-.047-.138.451.071c.478.074.733.118.733.118a2.82,2.82,0,0,0-.03-.336h.03s-.578-6.3-.585-14.2c0-8.964.757-19.893,3.89-26.078a18.394,18.394,0,0,0,2.355-8.627,9.022,9.022,0,0,0-1.612-5.518,4.373,4.373,0,0,0-1.854-1.467l-.064-.037h-.034a4.613,4.613,0,0,0-1.7-.336h-6.767a4.518,4.518,0,0,1-2.234-.589l-2.648-1.5a13.43,13.43,0,0,1-.821-6.558c0-.178.034-.357.05-.532l.192-.2c.148-.158.286-.336.42-.488a3.693,3.693,0,0,1-.03.4c-.034.212-.091.336-.182.363,1.447-.188,3.062-.474,3.95-1.592.037-.044.071-.091.1-.138a7.2,7.2,0,0,0,.65-1.346,3.9,3.9,0,0,1,.495-.9c.222-.289.511-.525.75-.8l.04-.047a5.809,5.809,0,0,0,.909-3.775c.017-3.2-.078-6.73-2.221-9.132-1.78-2-4.62-2.756-7.315-2.843s-5.384.4-8.076.411c-1.831,0-4.038-.03-5.047,1.484-.495.744-.555,1.716-1.094,2.429-.31.411-.784.764-.811,1.275a1.313,1.313,0,0,0,.175.673v.024a4.76,4.76,0,0,0,3.486,2.339,8.674,8.674,0,0,0-.673.929,8.842,8.842,0,0,0-1.346,4.711,5.526,5.526,0,0,0,.02.579,8.894,8.894,0,0,0,2.82,5.925c-.027.188-.054.377-.084.562l.061.054q.286.259.6.491l.074.057v.336a5.62,5.62,0,0,1-.02.586c-.02.192,0,.31-.02.464l-.044-.037-3.287-2.746-5.286-4.892s-13.217-9.62-13.88-5.047a3.3,3.3,0,0,0,.629,2.281c2.426,3.7,10.768,6.851,10.768,6.851a70.5,70.5,0,0,1,8.3,10.929c-.118.064-.236.124-.36.182-2.961,1.376-7.281.794-7.281.794-4.99.777-5.441,6.245-5.414,8.456v.458l-6.622-15.549-.02-.047a3.274,3.274,0,0,0-2.476-1.945C832.314,227.841,821.247,226.29,822.172,229.557ZM849.9,380.639a2.843,2.843,0,0,1,.293-.054l-.03.047Z" transform="translate(-583.511 -167.597)" fill="url(#linear-gradient-2)"/>
    <path id="Path_95" data-name="Path 95" d="M987.447,716.43s6.272,7.884,7.722,7.722,4.825,3.055,2.9,4.038-13.029,1.609-18.507-2.574v-6.3Z" transform="translate(-687.976 -506.569)" fill="#aca9c9"/>
    <path id="Path_96" data-name="Path 96" d="M890.224,717.86s-3.7,6.6-6.272,7.4-4.825,3.7-1.447,4.505,15.445-.966,16.569-2.9v-8.53Z" transform="translate(-622.446 -507.518)" fill="#aca9c9"/>
    <path id="Path_97" data-name="Path 97" d="M894.476,475.38l3.2,22.807v10.6a19.005,19.005,0,0,0,.579,4.771c1.043,4.014.185,18.019-.3,24.664-.158,2.167-.279,3.553-.279,3.553,2.09-.966,10.939,2.09,10.939,2.09l.895-3.045.714-2.423c1.931-1.447.336-27.346,0-33.312-.219-4.075,1.6-17.285,2.762-25.2.336-2.238.609-4.038.774-5.121.1-.673.162-1.046.162-1.046a3.525,3.525,0,0,1,.868,1.046,10.082,10.082,0,0,1,.71,1.487c3.237,8.18,4.711,31.565,4.711,33.648v21.993a23.2,23.2,0,0,0,.885,6.417,33.645,33.645,0,0,1,.872,4.633c.229,1.746.336,3.153.336,3.153.161-.966,10.135-5.31,10.135-5.31V504.109s.481-14.469,1.932-28.8a51.376,51.376,0,0,0-1.851-19.375c-.4-1.37-.8-2.53-1.148-3.449-.589-1.565-1.009-2.43-1.009-2.43H897.5c-.552.1-1.009,1.215-1.423,2.9-.269,1.131-.5,2.517-.71,4.038-.609,4.479-.959,10.054-1.127,13.278a26.869,26.869,0,0,0,.232,5.1Z" transform="translate(-631.346 -329.828)" fill="#618fd8"/>
    <g id="Group_5" data-name="Group 5" transform="translate(266.408 120.333)" opacity="0.1">
      <path id="Path_98" data-name="Path 98" d="M987.273,541.09V504.413s.481-14.469,1.931-28.8a50.166,50.166,0,0,0-4.038-25.257h.643a50.457,50.457,0,0,1,4.038,25.257c-1.43,14.317-1.931,28.8-1.931,28.8V541.09s-9.974,4.344-10.135,5.31a4.811,4.811,0,0,0-.051-.585C979.9,544.3,987.273,541.09,987.273,541.09Z" transform="translate(-953.17 -450.36)"/>
      <path id="Path_99" data-name="Path 99" d="M905.625,722.323a2.49,2.49,0,0,0-.885.182v-.162A5.759,5.759,0,0,1,905.625,722.323Z" transform="translate(-904.74 -630.806)"/>
      <path id="Path_100" data-name="Path 100" d="M937.068,585.3c1.932-1.447.336-27.346,0-33.312s3.7-31.367,3.7-31.367a2.8,2.8,0,0,1,.555.572c-.592,3.8-3.9,25.374-3.61,30.795.336,5.953,1.931,31.852,0,33.312l-1.609,5.468-.585-.2Z" transform="translate(-925.163 -496.979)"/>
    </g>
    <path id="Path_101" data-name="Path 101" d="M855.09,293.3l-3.365,11.9s-3.54,3.365-6.434,0-4.677-12.386-4.852-14.317-2.736-11.9-3.7-11.9-10.616.643-11.743-3.365c-.9-3.224,9.873-1.682,14.186-.959a3.2,3.2,0,0,1,2.413,1.918l6.615,15.8S851.712,288.316,855.09,293.3Z" transform="translate(-585.384 -212.779)" fill="#f7c4a7"/>
    <path id="Path_102" data-name="Path 102" d="M943.861,249.82s-4.183,11.743,1.127,15.926S926,271.055,926,271.055l3.3-3.136s2.332-9.25.724-16.972Z" transform="translate(-652.438 -196.965)" fill="#f7c4a7"/>
    <path id="Path_103" data-name="Path 103" d="M917.219,292.87s4.263-1.046,4.263-2.17l3.779,2.17h9.492s6.918,3.859,1.127,15.445-3.217,40.042-3.217,40.042-20.589-3.7-37.643,1.931c0,0,2.574-12.709,1.608-19.947s1.609-17.373,1.609-17.373l1.447-6.114s-.081-5.72-6.033-2.816c0,0-.885-8.284,5.229-9.25,0,0,7.066.966,9.169-2.574C908.05,292.228,912.717,294.963,917.219,292.87Z" transform="translate(-630.945 -224.09)" opacity="0.1"/>
    <path id="Path_104" data-name="Path 104" d="M917.219,291.92s4.263-1.046,4.263-2.17l2.769,1.592a4.373,4.373,0,0,0,2.174.579h6.639a4.375,4.375,0,0,1,3.557,1.81c1.524,2.143,2.89,6.37-.74,13.634-5.791,11.582-3.217,40.042-3.217,40.042s-20.589-3.7-37.643,1.931c0,0,2.574-12.709,1.608-19.947s1.609-17.349,1.609-17.349l1.447-6.114s-.081-5.72-6.033-2.816c0,0-.861-8.055,4.977-9.206a1.651,1.651,0,0,1,.495-.034c1.248.131,7.066.552,8.93-2.6C908.05,291.274,912.717,294.01,917.219,291.92Z" transform="translate(-630.945 -223.46)" fill="#e14b5a"/>
    <path id="Path_105" data-name="Path 105" d="M960.992,314.767s-5.148,3.217-13.513,0c0,0-9.169-3.365-12.066-9.973s14.637,1.127,14.637,1.127,3.7,0,4.825-.8S963.886,311.227,960.992,314.767Z" transform="translate(-658.47 -231.669)" opacity="0.1"/>
    <path id="Path_106" data-name="Path 106" d="M920.654,270.667s-5.148,3.217-13.513,0c0,0-9.169-3.365-12.066-9.973s-9.651-13.846-9.651-13.846-11.743-4.506-11.1-9.008,13.513,4.987,13.513,4.987l5.148,4.825,16.73,14.156s3.7,0,4.825-.8S923.548,267.127,920.654,270.667Z" transform="translate(-618.132 -188.212)" fill="#f7c4a7"/>
    <path id="Path_107" data-name="Path 107" d="M937.49,252.377l13.833-1.127a31.738,31.738,0,0,0-1.444,6.551,8.839,8.839,0,0,1-12.383.336A15.716,15.716,0,0,0,937.49,252.377Z" transform="translate(-660.062 -197.914)" opacity="0.1"/>
    <circle id="Ellipse_39" data-name="Ellipse 39" cx="8.846" cy="8.846" r="8.846" transform="translate(274.776 44.412)" fill="#f7c4a7"/>
    <path id="Path_108" data-name="Path 108" d="M940.133,225.809c-.518-.855.535-1.968.188-2.9-.319-.861-1.592-1.009-2.019-1.814-.336-.649,0-1.447-.135-2.164a2.223,2.223,0,0,0-2.133-1.548,7.612,7.612,0,0,0-2.756.609,10.582,10.582,0,0,1-4.539.7,4.759,4.759,0,0,1-3.748-2.379,1.345,1.345,0,0,1-.172-.653c.027-.5.491-.851.791-1.255.525-.7.585-1.662,1.063-2.4.976-1.494,3.119-1.457,4.9-1.464,2.624,0,5.235-.491,7.86-.4s5.384.831,7.123,2.8c2.086,2.372,2.18,5.845,2.164,9.008a5.734,5.734,0,0,1-.885,3.725c-.242.293-.538.535-.771.835-.5.673-.639,1.534-1.114,2.217-.841,1.215-2.483,1.511-3.947,1.706.431-.057.074-2.941,0-3.207C941.725,225.9,941.419,225.927,940.133,225.809Z" transform="translate(-651.655 -170.63)" opacity="0.1"/>
    <path id="Path_109" data-name="Path 109" d="M940.133,224.859c-.518-.855.535-1.968.188-2.9-.319-.861-1.592-1.01-2.019-1.814-.336-.649,0-1.447-.135-2.164a2.223,2.223,0,0,0-2.133-1.548,7.611,7.611,0,0,0-2.756.609,10.58,10.58,0,0,1-4.539.7,4.759,4.759,0,0,1-3.748-2.379,1.345,1.345,0,0,1-.172-.653c.027-.5.491-.851.791-1.255.525-.7.585-1.662,1.063-2.4.976-1.494,3.119-1.457,4.9-1.464,2.624,0,5.235-.491,7.86-.4s5.384.831,7.123,2.8c2.086,2.372,2.18,5.845,2.164,9.008a5.734,5.734,0,0,1-.885,3.725c-.242.293-.538.535-.771.834-.5.673-.639,1.534-1.114,2.217-.841,1.215-2.483,1.511-3.947,1.706.431-.057.074-2.941,0-3.207C941.725,224.934,941.419,224.974,940.133,224.859Z" transform="translate(-651.655 -170)" fill="#281c1c"/>
    <path id="Path_110" data-name="Path 110" d="M995.207,317.782s-4.344-11.262-7.722-11.582,6.433,0,6.433,0l3.217,5.791Z" transform="translate(-692.765 -234.28)" opacity="0.1"/>
    <path id="Path_111" data-name="Path 111" d="M996.166,317.782s-4.344-11.262-7.722-11.582,6.434,0,6.434,0l3.217,5.791Z" transform="translate(-693.401 -234.28)" fill="#e14b5a"/>
    <path id="Path_112" data-name="Path 112" d="M976.65,716.765c.229,1.746.336,3.153.336,3.153.161-.966,10.135-5.31,10.135-5.31v-2.615a4.423,4.423,0,0,0-.76.037,14.344,14.344,0,0,0-5.384,2.2A49.157,49.157,0,0,1,976.65,716.765Z" transform="translate(-686.045 -503.623)" fill="#618fd8"/>
    <path id="Path_113" data-name="Path 113" d="M976.65,716.765c.229,1.746.336,3.153.336,3.153.161-.966,10.135-5.31,10.135-5.31v-2.615a4.423,4.423,0,0,0-.76.037,14.344,14.344,0,0,0-5.384,2.2A49.157,49.157,0,0,1,976.65,716.765Z" transform="translate(-686.045 -503.623)" opacity="0.3"/>
    <path id="Path_114" data-name="Path 114" d="M904.5,715.217c2.089-.966,10.939,2.09,10.939,2.09l.9-3.045c-1.544-.313-3.079-.7-4.586-1.167a15.243,15.243,0,0,1-2.059-.76,13.845,13.845,0,0,0-1.373-.639,7.122,7.122,0,0,0-3.54-.03C904.621,713.831,904.5,715.217,904.5,715.217Z" transform="translate(-638.173 -503.266)" fill="#618fd8"/>
    <path id="Path_115" data-name="Path 115" d="M904.5,715.217c2.089-.966,10.939,2.09,10.939,2.09l.9-3.045c-1.544-.313-3.079-.7-4.586-1.167a15.243,15.243,0,0,1-2.059-.76,13.845,13.845,0,0,0-1.373-.639,7.122,7.122,0,0,0-3.54-.03C904.621,713.831,904.5,715.217,904.5,715.217Z" transform="translate(-638.173 -503.266)" opacity="0.3"/>
    <path id="Path_116" data-name="Path 116" d="M997.807,744.814a.962.962,0,0,0,.552-.639.946.946,0,0,1-.552,1.12c-1.931.966-13.029,1.608-18.507-2.574v-.481C984.778,746.422,995.875,745.78,997.807,744.814Z" transform="translate(-687.804 -523.694)" fill="#fff" opacity="0.4"/>
    <path id="Path_117" data-name="Path 117" d="M882.255,746.087c3.365.8,15.445-.966,16.568-2.9v.481c-1.127,1.931-13.19,3.7-16.568,2.9-1.38-.336-1.82-1.01-1.682-1.746C880.68,745.367,881.185,745.818,882.255,746.087Z" transform="translate(-622.281 -524.324)" fill="#fff" opacity="0.4"/>
    <path id="Path_118" data-name="Path 118" d="M916.875,402.542s-3.54-1.127-4.506,0-9.22,3.769-9.22,3.769" transform="translate(-637.277 -297.967)" opacity="0.1"/>
    <rect id="Rectangle_44" data-name="Rectangle 44" width="17.211" height="0.363" transform="translate(256.758 60.375) rotate(180)" fill="#8ed16f"/>
    <rect id="Rectangle_45" data-name="Rectangle 45" width="17.211" height="0.363" transform="translate(256.758 60.738) rotate(180)" fill="#8ed16f"/>
    <rect id="Rectangle_46" data-name="Rectangle 46" width="17.211" height="0.363" transform="translate(256.758 60.738) rotate(180)" opacity="0.1"/>
    <rect id="Rectangle_47" data-name="Rectangle 47" width="17.211" height="0.363" transform="translate(256.758 61.102) rotate(180)" fill="#8ed16f"/>
    <rect id="Rectangle_48" data-name="Rectangle 48" width="17.211" height="0.363" transform="translate(256.758 61.462) rotate(180)" fill="#8ed16f"/>
    <rect id="Rectangle_49" data-name="Rectangle 49" width="17.211" height="0.363" transform="translate(256.758 61.462) rotate(180)" opacity="0.1"/>
    <rect id="Rectangle_50" data-name="Rectangle 50" width="17.211" height="0.363" transform="translate(256.758 61.825) rotate(180)" fill="#8ed16f"/>
    <rect id="Rectangle_51" data-name="Rectangle 51" width="17.211" height="0.363" transform="translate(256.758 62.185) rotate(180)" fill="#8ed16f"/>
    <rect id="Rectangle_52" data-name="Rectangle 52" width="17.211" height="0.363" transform="translate(256.758 62.185) rotate(180)" opacity="0.1"/>
    <rect id="Rectangle_53" data-name="Rectangle 53" width="17.211" height="0.363" transform="translate(256.758 62.549) rotate(180)" fill="#8ed16f"/>
    <rect id="Rectangle_54" data-name="Rectangle 54" width="17.211" height="0.363" transform="translate(256.758 62.909) rotate(180)" fill="#8ed16f"/>
    <rect id="Rectangle_55" data-name="Rectangle 55" width="17.211" height="0.363" transform="translate(256.758 62.909) rotate(180)" opacity="0.1"/>
    <rect id="Rectangle_56" data-name="Rectangle 56" width="17.211" height="0.363" transform="translate(256.758 57.481) rotate(180)" fill="#8ed16f"/>
    <rect id="Rectangle_57" data-name="Rectangle 57" width="17.211" height="0.363" transform="matrix(-0.769, -0.639, 0.639, -0.769, 264.954, 59.883)" fill="#8ed16f"/>
    <rect id="Rectangle_58" data-name="Rectangle 58" width="17.211" height="0.363" transform="matrix(-0.769, -0.639, 0.639, -0.769, 252.889, 54.093)" fill="#8ed16f"/>
    <rect id="Rectangle_59" data-name="Rectangle 59" width="17.211" height="0.363" transform="translate(256.758 57.841) rotate(180)" fill="#8ed16f"/>
    <rect id="Rectangle_60" data-name="Rectangle 60" width="17.211" height="0.363" transform="translate(256.758 57.841) rotate(180)" opacity="0.1"/>
    <rect id="Rectangle_61" data-name="Rectangle 61" width="17.211" height="0.363" transform="translate(256.758 58.208) rotate(180)" fill="#8ed16f"/>
    <rect id="Rectangle_62" data-name="Rectangle 62" width="17.211" height="0.363" transform="translate(256.758 58.568) rotate(180)" fill="#8ed16f"/>
    <rect id="Rectangle_63" data-name="Rectangle 63" width="17.211" height="0.363" transform="translate(256.758 58.568) rotate(180)" opacity="0.1"/>
    <rect id="Rectangle_64" data-name="Rectangle 64" width="17.211" height="0.363" transform="translate(256.758 58.928) rotate(180)" fill="#8ed16f"/>
    <rect id="Rectangle_65" data-name="Rectangle 65" width="17.211" height="0.363" transform="translate(256.758 59.291) rotate(180)" fill="#8ed16f"/>
    <rect id="Rectangle_66" data-name="Rectangle 66" width="17.211" height="0.363" transform="translate(256.758 59.291) rotate(180)" opacity="0.1"/>
    <rect id="Rectangle_67" data-name="Rectangle 67" width="17.211" height="0.363" transform="translate(256.758 59.651) rotate(180)" fill="#8ed16f"/>
    <rect id="Rectangle_68" data-name="Rectangle 68" width="17.211" height="0.363" transform="translate(256.758 60.015) rotate(180)" fill="#8ed16f"/>
    <rect id="Rectangle_69" data-name="Rectangle 69" width="17.211" height="0.363" transform="translate(256.758 60.015) rotate(180)" opacity="0.1"/>
    <rect id="Rectangle_70" data-name="Rectangle 70" width="6.272" height="12.224" transform="translate(243.532 75.27) rotate(-169.48)" fill="#8ed16f"/>
    <ellipse id="Ellipse_40" data-name="Ellipse 40" cx="2.574" cy="1.285" rx="2.574" ry="1.285" transform="translate(239.916 71.023) rotate(-79.48)" fill="#8ed16f"/>
    <ellipse id="Ellipse_41" data-name="Ellipse 41" cx="2.574" cy="1.285" rx="2.574" ry="1.285" transform="translate(239.916 71.023) rotate(-79.48)" opacity="0.1"/>
    <rect id="Rectangle_71" data-name="Rectangle 71" width="6.272" height="12.224" transform="translate(244.587 100.638) rotate(-169.48)" fill="#8ed16f"/>
    <ellipse id="Ellipse_42" data-name="Ellipse 42" cx="2.574" cy="1.285" rx="2.574" ry="1.285" transform="translate(240.968 96.389) rotate(-79.48)" fill="#8ed16f"/>
    <ellipse id="Ellipse_43" data-name="Ellipse 43" cx="2.574" cy="1.285" rx="2.574" ry="1.285" transform="translate(240.968 96.389) rotate(-79.48)" opacity="0.1"/>
    <rect id="Rectangle_72" data-name="Rectangle 72" width="6.272" height="12.224" transform="matrix(0.476, -0.879, 0.879, 0.476, 213.13, 42.654)" fill="#8ed16f"/>
    <ellipse id="Ellipse_44" data-name="Ellipse 44" cx="1.288" cy="2.58" rx="1.288" ry="2.58" transform="translate(218.164 42.937) rotate(-61.39)" fill="#8ed16f"/>
    <ellipse id="Ellipse_45" data-name="Ellipse 45" cx="1.288" cy="2.58" rx="1.288" ry="2.58" transform="translate(218.164 42.937) rotate(-61.39)" opacity="0.1"/>
    <rect id="Rectangle_73" data-name="Rectangle 73" width="6.272" height="12.224" transform="matrix(0.476, -0.879, 0.879, 0.476, 189.523, 151.515)" fill="#8ed16f"/>
    <ellipse id="Ellipse_46" data-name="Ellipse 46" cx="1.285" cy="2.574" rx="1.285" ry="2.574" transform="matrix(0.476, -0.879, 0.879, 0.476, 193.481, 151.645)" fill="#8ed16f"/>
    <ellipse id="Ellipse_47" data-name="Ellipse 47" cx="1.285" cy="2.574" rx="1.285" ry="2.574" transform="matrix(0.476, -0.879, 0.879, 0.476, 193.481, 151.645)" opacity="0.1"/>
    <rect id="Rectangle_74" data-name="Rectangle 74" width="6.272" height="12.224" transform="matrix(0.476, -0.879, 0.879, 0.476, 175.08, 61.679)" fill="#8ed16f"/>
    <ellipse id="Ellipse_48" data-name="Ellipse 48" cx="1.285" cy="2.574" rx="1.285" ry="2.574" transform="matrix(0.476, -0.879, 0.879, 0.476, 179.035, 61.804)" fill="#8ed16f"/>
    <ellipse id="Ellipse_49" data-name="Ellipse 49" cx="1.285" cy="2.574" rx="1.285" ry="2.574" transform="matrix(0.476, -0.879, 0.879, 0.476, 179.035, 61.804)" opacity="0.1"/>
    <rect id="Rectangle_75" data-name="Rectangle 75" width="6.272" height="12.224" transform="matrix(0.476, -0.879, 0.879, 0.476, 193.182, 42.653)" fill="#8ed16f"/>
    <ellipse id="Ellipse_50" data-name="Ellipse 50" cx="1.285" cy="2.574" rx="1.285" ry="2.574" transform="matrix(0.476, -0.879, 0.879, 0.476, 197.137, 42.778)" fill="#8ed16f"/>
    <ellipse id="Ellipse_51" data-name="Ellipse 51" cx="1.285" cy="2.574" rx="1.285" ry="2.574" transform="matrix(0.476, -0.879, 0.879, 0.476, 197.137, 42.778)" opacity="0.1"/>
    <rect id="Rectangle_76" data-name="Rectangle 76" width="6.272" height="12.224" transform="matrix(0.994, -0.109, 0.109, 0.994, 208.007, 60.269)" fill="#8ed16f"/>
    <ellipse id="Ellipse_52" data-name="Ellipse 52" cx="1.285" cy="2.574" rx="1.285" ry="2.574" transform="matrix(0.994, -0.109, 0.109, 0.994, 210.149, 63.596)" fill="#8ed16f"/>
    <ellipse id="Ellipse_53" data-name="Ellipse 53" cx="1.285" cy="2.574" rx="1.285" ry="2.574" transform="matrix(0.994, -0.109, 0.109, 0.994, 210.149, 63.596)" opacity="0.1"/>
    <rect id="Rectangle_77" data-name="Rectangle 77" width="6.272" height="12.224" transform="matrix(0.994, -0.109, 0.109, 0.994, 250.755, 126.812)" fill="#8ed16f"/>
    <ellipse id="Ellipse_54" data-name="Ellipse 54" cx="1.285" cy="2.574" rx="1.285" ry="2.574" transform="matrix(0.994, -0.109, 0.109, 0.994, 252.9, 130.139)" fill="#8ed16f"/>
    <ellipse id="Ellipse_55" data-name="Ellipse 55" cx="1.285" cy="2.574" rx="1.285" ry="2.574" transform="matrix(0.994, -0.109, 0.109, 0.994, 252.9, 130.139)" opacity="0.1"/>
    <rect id="Rectangle_78" data-name="Rectangle 78" width="6.272" height="12.224" transform="matrix(0.476, -0.879, 0.879, 0.476, 186.842, 90.917)" fill="#8ed16f"/>
    <ellipse id="Ellipse_56" data-name="Ellipse 56" cx="1.285" cy="2.574" rx="1.285" ry="2.574" transform="matrix(0.476, -0.879, 0.879, 0.476, 190.795, 91.047)" fill="#8ed16f"/>
    <ellipse id="Ellipse_57" data-name="Ellipse 57" cx="1.285" cy="2.574" rx="1.285" ry="2.574" transform="matrix(0.476, -0.879, 0.879, 0.476, 190.795, 91.047)" opacity="0.1"/>
    <rect id="Rectangle_79" data-name="Rectangle 79" width="6.272" height="12.224" transform="matrix(0.476, -0.879, 0.879, 0.476, 159.712, 83.168)" fill="#8ed16f"/>
    <ellipse id="Ellipse_58" data-name="Ellipse 58" cx="1.288" cy="2.58" rx="1.288" ry="2.58" transform="translate(164.552 83.644) rotate(-61.39)" fill="#8ed16f"/>
    <ellipse id="Ellipse_59" data-name="Ellipse 59" cx="1.288" cy="2.58" rx="1.288" ry="2.58" transform="translate(164.552 83.644) rotate(-61.39)" opacity="0.1"/>
    <rect id="Rectangle_80" data-name="Rectangle 80" width="6.272" height="12.224" transform="matrix(0.476, -0.879, 0.879, 0.476, 151.022, 213.625)" fill="#8ed16f"/>
    <ellipse id="Ellipse_60" data-name="Ellipse 60" cx="1.285" cy="2.574" rx="1.285" ry="2.574" transform="matrix(0.476, -0.879, 0.879, 0.476, 154.977, 213.752)" fill="#8ed16f"/>
    <ellipse id="Ellipse_61" data-name="Ellipse 61" cx="1.285" cy="2.574" rx="1.285" ry="2.574" transform="matrix(0.476, -0.879, 0.879, 0.476, 154.977, 213.752)" opacity="0.1"/>
    <rect id="Rectangle_81" data-name="Rectangle 81" width="6.272" height="12.224" transform="translate(145.042 216.403) rotate(-79.49)" fill="#8ed16f"/>
    <rect id="Rectangle_82" data-name="Rectangle 82" width="6.272" height="12.224" transform="translate(145.042 216.403) rotate(-79.49)" opacity="0.05"/>
    <ellipse id="Ellipse_62" data-name="Ellipse 62" cx="1.285" cy="2.574" rx="1.285" ry="2.574" transform="translate(148.846 215.307) rotate(-79.49)" fill="#8ed16f"/>
    <ellipse id="Ellipse_63" data-name="Ellipse 63" cx="1.285" cy="2.574" rx="1.285" ry="2.574" transform="translate(148.846 215.307) rotate(-79.49)" opacity="0.1"/>
    <rect id="Rectangle_83" data-name="Rectangle 83" width="6.272" height="12.224" transform="translate(146.168 220.102) rotate(-79.49)" fill="#8ed16f"/>
    <ellipse id="Ellipse_64" data-name="Ellipse 64" cx="1.285" cy="2.574" rx="1.285" ry="2.574" transform="translate(149.968 219.005) rotate(-79.49)" fill="#8ed16f"/>
    <ellipse id="Ellipse_65" data-name="Ellipse 65" cx="1.285" cy="2.574" rx="1.285" ry="2.574" transform="translate(149.968 219.005) rotate(-79.49)" opacity="0.1"/>
    <rect id="Rectangle_84" data-name="Rectangle 84" width="6.272" height="12.224" transform="matrix(0.476, -0.879, 0.879, 0.476, 163.704, 229.48)" fill="#8ed16f"/>
    <ellipse id="Ellipse_66" data-name="Ellipse 66" cx="1.285" cy="2.574" rx="1.285" ry="2.574" transform="matrix(0.476, -0.879, 0.879, 0.476, 167.662, 229.607)" fill="#8ed16f"/>
    <ellipse id="Ellipse_67" data-name="Ellipse 67" cx="1.285" cy="2.574" rx="1.285" ry="2.574" transform="matrix(0.476, -0.879, 0.879, 0.476, 167.662, 229.607)" opacity="0.1"/>
    <rect id="Rectangle_85" data-name="Rectangle 85" width="6.272" height="12.224" transform="translate(157.726 232.254) rotate(-79.49)" fill="#8ed16f"/>
    <rect id="Rectangle_86" data-name="Rectangle 86" width="6.272" height="12.224" transform="translate(157.726 232.254) rotate(-79.49)" opacity="0.05"/>
    <ellipse id="Ellipse_68" data-name="Ellipse 68" cx="1.285" cy="2.574" rx="1.285" ry="2.574" transform="translate(161.527 231.158) rotate(-79.49)" fill="#8ed16f"/>
    <ellipse id="Ellipse_69" data-name="Ellipse 69" cx="1.285" cy="2.574" rx="1.285" ry="2.574" transform="translate(161.527 231.158) rotate(-79.49)" opacity="0.1"/>
    <rect id="Rectangle_87" data-name="Rectangle 87" width="6.272" height="12.224" transform="translate(158.851 235.956) rotate(-79.49)" fill="#8ed16f"/>
    <ellipse id="Ellipse_70" data-name="Ellipse 70" cx="1.285" cy="2.574" rx="1.285" ry="2.574" transform="translate(162.655 234.86) rotate(-79.49)" fill="#8ed16f"/>
    <ellipse id="Ellipse_71" data-name="Ellipse 71" cx="1.285" cy="2.574" rx="1.285" ry="2.574" transform="translate(162.655 234.86) rotate(-79.49)" opacity="0.1"/>
    <rect id="Rectangle_88" data-name="Rectangle 88" width="6.272" height="12.224" transform="matrix(0.476, -0.879, 0.879, 0.476, 182.731, 219.263)" fill="#8ed16f"/>
    <ellipse id="Ellipse_72" data-name="Ellipse 72" cx="1.285" cy="2.574" rx="1.285" ry="2.574" transform="matrix(0.476, -0.879, 0.879, 0.476, 186.683, 219.388)" fill="#8ed16f"/>
    <ellipse id="Ellipse_73" data-name="Ellipse 73" cx="1.285" cy="2.574" rx="1.285" ry="2.574" transform="matrix(0.476, -0.879, 0.879, 0.476, 186.683, 219.388)" opacity="0.1"/>
    <rect id="Rectangle_89" data-name="Rectangle 89" width="6.272" height="12.224" transform="translate(176.752 222.038) rotate(-79.49)" fill="#8ed16f"/>
    <rect id="Rectangle_90" data-name="Rectangle 90" width="6.272" height="12.224" transform="translate(176.752 222.038) rotate(-79.49)" opacity="0.05"/>
    <ellipse id="Ellipse_74" data-name="Ellipse 74" cx="1.285" cy="2.574" rx="1.285" ry="2.574" transform="translate(180.552 220.942) rotate(-79.49)" fill="#8ed16f"/>
    <ellipse id="Ellipse_75" data-name="Ellipse 75" cx="1.285" cy="2.574" rx="1.285" ry="2.574" transform="translate(180.552 220.942) rotate(-79.49)" opacity="0.1"/>
    <rect id="Rectangle_91" data-name="Rectangle 91" width="6.272" height="12.224" transform="translate(177.877 225.74) rotate(-79.49)" fill="#8ed16f"/>
    <ellipse id="Ellipse_76" data-name="Ellipse 76" cx="1.285" cy="2.574" rx="1.285" ry="2.574" transform="translate(181.681 224.644) rotate(-79.49)" fill="#8ed16f"/>
    <ellipse id="Ellipse_77" data-name="Ellipse 77" cx="1.285" cy="2.574" rx="1.285" ry="2.574" transform="translate(181.681 224.644) rotate(-79.49)" opacity="0.1"/>
  </g>
</svg>
