<svg id="undraw_completing_6bhr" xmlns="http://www.w3.org/2000/svg" width="297.072" height="195.429" viewBox="0 0 297.072 195.429">
  <path id="Path_119" data-name="Path 119" d="M573.175,137.044l-53.838,45.844-11.78,10.03-32.963-.2-28.132-.171-2.336-.014-5.709-6.705-22.7-26.656-11.394-13.383-3.426-4.022-2.478-2.911-5.523-6.486-8.941-10.5,9.056-7.711,8.649-7.365,6.217-5.293,78.276-66.652Z" transform="translate(-284.165 -25.789)" fill="#f69e46" opacity="0.27"/>
  <rect id="Rectangle_92" data-name="Rectangle 92" width="103.183" height="74.593" transform="translate(25.211 26.491)" fill="#3d5645"/>
  <rect id="Rectangle_93" data-name="Rectangle 93" width="97.205" height="0.52" transform="translate(150.485 180.615)" fill="#3f3d56"/>
  <path id="Path_120" data-name="Path 120" d="M940.086,605.294h-77.8s-1.577-23.131,7.754-23.394,8.28,10.251,19.977-4.206,25.891-13.668,27.731-5.126-3.549,15.377,6.308,13.274S948.1,589.26,940.086,605.294Z" transform="translate(-645.374 -438.454)" fill="#f69e46"/>
  <path id="Path_121" data-name="Path 121" d="M1006.442,604.912l-.263-.01c.612-15.229,3.8-25.014,6.37-30.541,2.788-6,5.475-8.43,5.5-8.454l.175.2c-.026.024-2.682,2.429-5.448,8.389C1010.226,580,1007.053,589.74,1006.442,604.912Z" transform="translate(-751.945 -438.067)" fill="#f2f2f2"/>
  <path id="Path_122" data-name="Path 122" d="M1114.821,667.261l-.252-.073a40.775,40.775,0,0,1,10.266-17.079l.177.195A40.5,40.5,0,0,0,1114.821,667.261Z" transform="translate(-832.164 -500.384)" fill="#f2f2f2"/>
  <path id="Path_123" data-name="Path 123" d="M890.074,650.854l-.26-.036a28.627,28.627,0,0,0-2.575-16.733,23.043,23.043,0,0,0-4.064-5.93l.182-.19a23.336,23.336,0,0,1,4.118,6A28.891,28.891,0,0,1,890.074,650.854Z" transform="translate(-660.91 -483.997)" fill="#f2f2f2"/>
  <rect id="Rectangle_95" data-name="Rectangle 95" width="24.612" height="30.578" transform="translate(188.363 10.244)" fill="#2f2e41"/>
  <path id="Path_124" data-name="Path 124" d="M636.983,588.213l-3.356,12.306,5.594,4.1,1.492-1.119,2.61-12.679Z" transform="translate(-468.944 -435.333)" fill="#ffb8b8"/>
  <path id="Path_125" data-name="Path 125" d="M805.484,583.909l-1.119,14.916h7.085v-13.8Z" transform="translate(-595.306 -432.148)" fill="#ffb8b8"/>
  <path id="Path_126" data-name="Path 126" d="M722.583,220.912v8.95l13.8,2.238,11.933-4.848-2.237-5.594Z" transform="translate(-534.779 -163.496)" fill="#ffb8b8"/>
  <path id="Path_127" data-name="Path 127" d="M701.916,309.232l-11.933-2.237L687,331.233l-7.458,30.205s-11.187,25.73-9.7,31.7l.746,1.865-.746,3.356,7.458,2.983,2.983-4.848s2.237,3.356,5.966-3.729,19.391-51.088,19.391-51.088l2.61,7.458a15.369,15.369,0,0,0-.373,7.085c.746,3.729,1.492,15.289,1.492,15.289s-4.1,20.137,1.492,21.628l1.119,4.475,7.831.746,1.492-4.475s7.458-2.61,5.594-15.662-2.61-55.936-2.61-55.936l-7.346-18.114Z" transform="translate(-502.925 -244.357)" fill="#2f2e41"/>
  <path id="Path_128" data-name="Path 128" d="M625.817,703.373s-1.865-1.492-2.61-1.119S614.63,712.7,614.63,712.7s-8.2,6.339-2.237,7.085,22.374-7.458,22.374-9.323-3.448-6.534-3.448-6.534S628.8,705.983,625.817,703.373Z" transform="translate(-458.896 -538.933)" fill="#2f2e41"/>
  <path id="Path_129" data-name="Path 129" d="M825.838,702.213s6.712-.417,7.831.724.746,6.734.746,6.734.746,10.068-5.221,10.068-4.475-6.712-4.475-6.712Z" transform="translate(-617.525 -538.892)" fill="#2f2e41"/>
  <circle id="Ellipse_78" data-name="Ellipse 78" cx="9.323" cy="9.323" r="9.323" transform="translate(192.279 5.955)" fill="#ffb8b8"/>
  <path id="Path_130" data-name="Path 130" d="M755.817,155.06s5.221,6.339-5.221,11.187,7.458,24.985,7.458,24.985,20.883-7.831,19.018-23.12c0,0-12.679-2.237-9.7-12.679Z" transform="translate(-560.369 -134.002)" fill="#ffb8b8"/>
  <path id="Path_131" data-name="Path 131" d="M726.193,196.485s-8.577-1.119-8.95,5.967,0,24.239,0,24.239-3.729,14.916-1.865,27.968c0,0-2.237,15.289,3.729,14.543s1.492-15.662,1.492-15.662l2.61-24.239-1.119-17.9,4.848-10.814Z" transform="translate(-536.339 -164.612)" fill="#ffb8b8"/>
  <path id="Path_132" data-name="Path 132" d="M845.809,203.006s8.132-.156,8.5,5.811-2.61,24.239-2.61,24.239l-4.475,2.237-4.1-12.679Z" transform="translate(-631.27 -169.486)" fill="#ffb8b8"/>
  <path id="Path_133" data-name="Path 133" d="M843.256,317.964l-.746,1.865,2.237,5.594s-8.95,7.085-8.2,8.577,4.848-1.865,4.848-1.865l5.966,2.983s4.848-5.221,2.61-10.068a56.251,56.251,0,0,1-3.1-8.067S843.629,316.846,843.256,317.964Z" transform="translate(-626.366 -253.836)" fill="#ffb8b8"/>
  <path id="Path_134" data-name="Path 134" d="M742.812,191.647l-1.119,12.306s-5.221,5.221.746,12.306l-.746,5.594s13.8-.746,16.408,0,10.672-.6,10.672-.6l.142-4.247a19.166,19.166,0,0,0,2.61-13.052c-1.119-7.831,0-10.441,0-10.441l-2.61-.373s-1.678,11.374-13.238,12.492c0,0-14.357,1.305-10.255-13.984Z" transform="translate(-554.636 -161.08)" fill="#3f5cec"/>
  <path id="Path_135" data-name="Path 135" d="M731.537,74.213s-9.7-.6-11.933,5.428a22.8,22.8,0,0,1-6.153,9.194,9.9,9.9,0,0,0-3.084,11.941s-9.595,6.448-3.255,12.175c0,0-.373,5.728,3.356,9.647,0,0,2.983,1.507,1.865,2.412s7.458.3,6.712-7.838a19.9,19.9,0,0,1,4.288-13.873s-4.848-10.553-2.61-14.17c1.358-2.2,1.942-3.834,3.07-4.782a14.144,14.144,0,0,0,1.741-1.7,4.017,4.017,0,0,1,4.326-1.349,5.7,5.7,0,0,1,4.1,3.617s2.424,6.481,6.526,9.5-3.17,8.29-3.17,8.29,1.264,6.211,4.547,9.888-.946,6.883-1.191,7.295c-.559.941-2.793,6.881,6.434,6.907a27.17,27.17,0,0,1,5.126-7.209c2.983-2.713.746-10.551.746-10.551s4.475-2.713-.373-9.345c0,0,1.492-6.029-2.61-9.948C750,89.74,744.216,72.1,731.537,74.213Z" transform="translate(-529.004 -74.038)" fill="#2f2e41"/>
  <ellipse id="Ellipse_79" data-name="Ellipse 79" cx="0.932" cy="1.492" rx="0.932" ry="1.492" transform="translate(190.6 13.6)" fill="#ffb8b8"/>
  <path id="Path_136" data-name="Path 136" d="M182.3,606.105H28.433s-3.119-45.743,15.334-46.263,16.374,20.273,39.506-8.317,51.2-27.03,54.84-10.136S131.1,571.8,150.589,567.639,198.152,574.4,182.3,606.105Z" transform="translate(-28.173 -410.936)" fill="#3fec5c" opacity="0.83"/>
  <path id="Path_137" data-name="Path 137" d="M313.528,605.351l-.519-.021c1.211-30.117,7.519-49.468,12.6-60.4,5.514-11.867,10.827-16.672,10.88-16.719l.345.389c-.052.047-5.3,4.8-10.773,16.59C321.008,556.076,314.735,575.347,313.528,605.351Z" transform="translate(-238.933 -410.171)" fill="#f2f2f2"/>
  <path id="Path_138" data-name="Path 138" d="M527.846,728.651l-.5-.145a80.636,80.636,0,0,1,20.3-33.775l.349.385A80.086,80.086,0,0,0,527.846,728.651Z" transform="translate(-397.564 -533.409)" fill="#f2f2f2"/>
  <path id="Path_139" data-name="Path 139" d="M83.392,696.207l-.515-.072a56.613,56.613,0,0,0-5.092-33.091,45.563,45.563,0,0,0-8.037-11.727l.36-.375a46.137,46.137,0,0,1,8.143,11.872A57.133,57.133,0,0,1,83.392,696.207Z" transform="translate(-58.898 -501.001)" fill="#f2f2f2"/>
  <rect id="Rectangle_96" data-name="Rectangle 96" width="217.541" height="0.52" transform="translate(0 194.91)" fill="#3f3d56"/>
  <circle id="Ellipse_80" data-name="Ellipse 80" cx="4.418" cy="4.418" r="4.418" transform="translate(31.189 40.006)" fill="#3f5cec"/>
  <circle id="Ellipse_81" data-name="Ellipse 81" cx="4.418" cy="4.418" r="4.418" transform="translate(43.664 40.006)" fill="#d0cde1"/>
  <circle id="Ellipse_82" data-name="Ellipse 82" cx="4.418" cy="4.418" r="4.418" transform="translate(56.14 40.006)" fill="#3f5cec" opacity="0.5"/>
  <circle id="Ellipse_83" data-name="Ellipse 83" cx="4.418" cy="4.418" r="4.418" transform="translate(68.615 40.006)" fill="#f2f2f2"/>
  <rect id="Rectangle_97" data-name="Rectangle 97" width="36.387" height="4.158" transform="translate(85.769 42.345)" fill="#f2f2f2"/>
  <circle id="Ellipse_84" data-name="Ellipse 84" cx="11.956" cy="11.956" r="11.956" transform="translate(62.897 61.838)" fill="#f2f2f2"/>
  <path id="Path_141" data-name="Path 141" d="M298.287,316.415l-5.983-5.983a1.04,1.04,0,1,1,1.47-1.47l4.413,4.413,14.083-16.059a1.04,1.04,0,0,1,1.563,1.371Z" transform="translate(-223.384 -239.022)" fill="#3f5cec"/>
</svg>
